<svg aria-hidden="true" style="position: absolute; width: 0; height: 0; overflow: hidden;" version="1.1" xmlns="http://www.w3.org/2000/svg" xmlns:xlink="http://www.w3.org/1999/xlink">
<defs>
<symbol id="icon-notes" viewBox="0 0 32 32">
<path d="M19.733 22.4h-7.467c-0.294 0-0.533 0.239-0.533 0.533s0.239 0.533 0.533 0.533h7.467c0.295 0 0.533-0.239 0.533-0.533s-0.238-0.533-0.533-0.533zM22.933 20.267v0c0.295 0 0.533-0.239 0.533-0.533s-0.238-0.533-0.533-0.533h-10.667c-0.294 0-0.533 0.239-0.533 0.533s0.239 0.533 0.533 0.533h10.667zM24 17.067v0c0.295 0 0.533-0.239 0.533-0.533s-0.238-0.533-0.533-0.533h-11.733c-0.294 0-0.533 0.239-0.533 0.533s0.239 0.533 0.533 0.533h11.733zM11.733 13.333v0c0 0.294 0.239 0.533 0.533 0.533h9.6c0.295 0 0.533-0.239 0.533-0.533s-0.238-0.533-0.533-0.533h-9.6c-0.294 0-0.533 0.239-0.533 0.533zM11.733 10.133v0c0 0.294 0.239 0.533 0.533 0.533h10.667c0.295 0 0.533-0.239 0.533-0.533s-0.238-0.533-0.533-0.533h-10.667c-0.294 0-0.533 0.239-0.533 0.533zM9.6 22.933v0c0-0.294-0.239-0.533-0.533-0.533h-1.067c-0.294 0-0.533 0.239-0.533 0.533s0.239 0.533 0.533 0.533h1.067c0.294 0 0.533-0.239 0.533-0.533zM9.6 19.733v0c0-0.294-0.239-0.533-0.533-0.533h-1.067c-0.294 0-0.533 0.239-0.533 0.533s0.239 0.533 0.533 0.533h1.067c0.294 0 0.533-0.239 0.533-0.533zM9.6 16.533v0c0-0.294-0.239-0.533-0.533-0.533h-1.067c-0.294 0-0.533 0.239-0.533 0.533s0.239 0.533 0.533 0.533h1.067c0.294 0 0.533-0.239 0.533-0.533zM9.6 13.333v0c0-0.294-0.239-0.533-0.533-0.533h-1.067c-0.294 0-0.533 0.239-0.533 0.533s0.239 0.533 0.533 0.533h1.067c0.294 0 0.533-0.239 0.533-0.533zM9.6 10.133v0c0-0.294-0.239-0.533-0.533-0.533h-1.067c-0.294 0-0.533 0.239-0.533 0.533s0.239 0.533 0.533 0.533h1.067c0.294 0 0.533-0.239 0.533-0.533zM9.6 2.667v0c0 0.294 0.239 0.533 0.533 0.533h1.067c0.294 0 0.533-0.239 0.533-0.533s-0.239-0.533-0.533-0.533h-1.067c-0.294 0-0.533 0.239-0.533 0.533zM14.933 2.667v0c0 0.294 0.239 0.533 0.533 0.533h1.067c0.295 0 0.533-0.239 0.533-0.533s-0.238-0.533-0.533-0.533h-1.067c-0.294 0-0.533 0.239-0.533 0.533zM20.267 2.667v0c0 0.294 0.238 0.533 0.533 0.533h1.067c0.295 0 0.533-0.239 0.533-0.533s-0.238-0.533-0.533-0.533h-1.067c-0.295 0-0.533 0.239-0.533 0.533zM8 4.267c0.294 0 0.533 0.239 0.533 0.533s-0.239 0.533-0.533 0.533c-0.294 0-0.533-0.239-0.533-0.533s0.239-0.533 0.533-0.533v0zM6.4 4.8c0 0.882 0.718 1.6 1.6 1.6s1.6-0.718 1.6-1.6c0-0.694-0.447-1.281-1.067-1.502v-2.765c0-0.294-0.239-0.533-0.533-0.533s-0.533 0.239-0.533 0.533v2.765c-0.62 0.221-1.067 0.807-1.067 1.502v0zM24 4.267c0.294 0 0.533 0.239 0.533 0.533s-0.239 0.533-0.533 0.533c-0.294 0-0.533-0.239-0.533-0.533s0.239-0.533 0.533-0.533v0zM22.4 4.8c0 0.882 0.718 1.6 1.6 1.6s1.6-0.718 1.6-1.6c0-0.694-0.447-1.281-1.067-1.502v-2.765c0-0.294-0.238-0.533-0.533-0.533s-0.533 0.239-0.533 0.533v2.765c-0.619 0.221-1.067 0.807-1.067 1.502v0zM18.667 4.267c0.294 0 0.533 0.239 0.533 0.533s-0.239 0.533-0.533 0.533c-0.294 0-0.533-0.239-0.533-0.533s0.239-0.533 0.533-0.533v0zM17.067 4.8c0 0.882 0.718 1.6 1.6 1.6s1.6-0.718 1.6-1.6c0-0.694-0.447-1.281-1.067-1.502v-2.765c0-0.294-0.238-0.533-0.533-0.533s-0.533 0.239-0.533 0.533v2.765c-0.619 0.221-1.067 0.807-1.067 1.502v0zM13.333 4.267c0.294 0 0.533 0.239 0.533 0.533s-0.239 0.533-0.533 0.533c-0.294 0-0.533-0.239-0.533-0.533s0.239-0.533 0.533-0.533v0zM11.733 4.8c0 0.882 0.718 1.6 1.6 1.6s1.6-0.718 1.6-1.6c0-0.694-0.447-1.281-1.067-1.502v-2.765c0-0.294-0.239-0.533-0.533-0.533s-0.533 0.239-0.533 0.533v2.765c-0.62 0.221-1.067 0.807-1.067 1.502v0zM27.2 30.933h-22.4c-0.598 0-1.219-0.488-1.476-1.067h25.351c-0.257 0.579-0.877 1.067-1.476 1.067v0zM3.2 28.8v-1.067h25.6v1.067h-25.6zM27.2 2.133h-1.067c-0.295 0-0.533 0.239-0.533 0.533s0.238 0.533 0.533 0.533h1.067c0.778 0 1.6 0.822 1.6 1.6v21.867h-25.6v-21.867c0-0.778 0.822-1.6 1.6-1.6h1.067c0.294 0 0.533-0.239 0.533-0.533s-0.239-0.533-0.533-0.533h-1.067c-1.371 0-2.667 1.296-2.667 2.667v24.533c0 1.371 1.296 2.667 2.667 2.667h22.4c1.371 0 2.667-1.296 2.667-2.667v-24.533c0-1.371-1.296-2.667-2.667-2.667v0z"></path>
</symbol>
<symbol id="icon-pencil" viewBox="0 0 32 32">
<path d="M27 0c2.761 0 5 2.239 5 5 0 1.126-0.372 2.164-1 3l-2 2-7-7 2-2c0.836-0.628 1.874-1 3-1zM2 23l-2 9 9-2 18.5-18.5-7-7-18.5 18.5zM22.362 11.362l-14 14-1.724-1.724 14-14 1.724 1.724z"></path>
</symbol>
<symbol id="icon-delete" viewBox="0 0 32 32">
<path d="M4 10v20c0 1.1 0.9 2 2 2h18c1.1 0 2-0.9 2-2v-20h-22zM10 28h-2v-14h2v14zM14 28h-2v-14h2v14zM18 28h-2v-14h2v14zM22 28h-2v-14h2v14z"></path>
<path d="M26.5 4h-6.5v-2.5c0-0.825-0.675-1.5-1.5-1.5h-7c-0.825 0-1.5 0.675-1.5 1.5v2.5h-6.5c-0.825 0-1.5 0.675-1.5 1.5v2.5h26v-2.5c0-0.825-0.675-1.5-1.5-1.5zM18 4h-6v-1.975h6v1.975z"></path>
</symbol>
<symbol id="icon-cross" viewBox="0 0 32 32">
<path d="M31.708 25.708c-0-0-0-0-0-0l-9.708-9.708 9.708-9.708c0-0 0-0 0-0 0.105-0.105 0.18-0.227 0.229-0.357 0.133-0.356 0.057-0.771-0.229-1.057l-4.586-4.586c-0.286-0.286-0.702-0.361-1.057-0.229-0.13 0.048-0.252 0.124-0.357 0.228 0 0-0 0-0 0l-9.708 9.708-9.708-9.708c-0-0-0-0-0-0-0.105-0.104-0.227-0.18-0.357-0.228-0.356-0.133-0.771-0.057-1.057 0.229l-4.586 4.586c-0.286 0.286-0.361 0.702-0.229 1.057 0.049 0.13 0.124 0.252 0.229 0.357 0 0 0 0 0 0l9.708 9.708-9.708 9.708c-0 0-0 0-0 0-0.104 0.105-0.18 0.227-0.229 0.357-0.133 0.355-0.057 0.771 0.229 1.057l4.586 4.586c0.286 0.286 0.702 0.361 1.057 0.229 0.13-0.049 0.252-0.124 0.357-0.229 0-0 0-0 0-0l9.708-9.708 9.708 9.708c0 0 0 0 0 0 0.105 0.105 0.227 0.18 0.357 0.229 0.356 0.133 0.771 0.057 1.057-0.229l4.586-4.586c0.286-0.286 0.362-0.702 0.229-1.057-0.049-0.13-0.124-0.252-0.229-0.357z"></path>
</symbol>
</defs>
</svg>
